<svg width="98" height="98" viewBox="0 0 98 98" fill="none" xmlns="http://www.w3.org/2000/svg">
<circle cx="49" cy="49" r="49" fill="#3FFF90"/>
<path d="M61.834 30.6667V36.1667M61.834 36.1667V41.6667M61.834 36.1667H67.334M61.834 36.1667H56.334" stroke="black" stroke-width="2" stroke-linecap="round" stroke-linejoin="round"/>
<path fill-rule="evenodd" clip-rule="evenodd" d="M50.8337 30.6667H36.167C34.7083 30.6667 33.3094 31.2462 32.2779 32.2777C31.2465 33.3091 30.667 34.7081 30.667 36.1667V55.4167C30.667 55.5744 30.6872 55.7284 30.7257 55.8751C30.6869 56.0248 30.6671 56.1788 30.667 56.3334V61.8334C30.667 63.2921 31.2465 64.6911 32.2779 65.7225C33.3094 66.754 34.7083 67.3334 36.167 67.3334H61.8337C63.2924 67.3334 64.6913 66.754 65.7227 65.7225C66.7542 64.6911 67.3337 63.2921 67.3337 61.8334V49.0001C67.3335 48.8454 67.3138 48.6914 67.275 48.5417C67.3138 48.3921 67.3335 48.2381 67.3337 48.0834V47.1667H63.667V47.1961C55.7892 47.4509 50.1003 49.3484 46.1037 52.0049C47.618 52.5421 49.312 53.3066 50.973 54.3076C53.5378 55.8476 56.1448 58.0109 57.8993 60.8764C58.025 61.0818 58.109 61.3099 58.1465 61.5477C58.184 61.7855 58.1743 62.0284 58.118 62.2625C58.0616 62.4966 57.9597 62.7173 57.8181 62.912C57.6765 63.1067 57.4979 63.2716 57.2925 63.3973C57.0871 63.5229 56.859 63.6069 56.6212 63.6444C56.3834 63.682 56.1405 63.6723 55.9064 63.6159C55.6723 63.5596 55.4516 63.4577 55.2569 63.316C55.0622 63.1744 54.8973 62.9958 54.7717 62.7904C53.4223 60.5849 51.3287 58.7974 49.0847 57.4499C46.8443 56.1042 44.5655 55.2646 42.9852 54.8979C40.759 54.3895 38.4795 54.1519 36.1963 54.1902H36.156C35.518 54.1994 34.9093 54.2269 34.3337 54.2727V36.1667C34.3337 35.6805 34.5268 35.2142 34.8706 34.8704C35.2144 34.5266 35.6808 34.3334 36.167 34.3334H50.8337V30.6667ZM42.5837 38.0001C41.5842 38.0076 40.6108 38.3197 39.7933 38.8947C38.7483 39.6464 38.0003 40.8857 38.0003 42.5834C38.0003 44.2811 38.7483 45.5186 39.7933 46.2702C40.6103 46.8466 41.5839 47.1594 42.5837 47.1667C43.3353 47.1667 44.4225 46.9559 45.374 46.2702C46.419 45.5186 47.167 44.2811 47.167 42.5834C47.167 40.8857 46.419 39.6482 45.374 38.8947C44.5568 38.319 43.5832 38.0069 42.5837 38.0001Z" fill="black"/>
</svg>
