<svg width="21" height="21" viewBox="0 0 21 21" fill="none" xmlns="http://www.w3.org/2000/svg">
<path d="M17.5 15.75H15.75V8.09375L10.5 11.375L5.25 8.09375V15.75H3.5V5.25H4.55L10.5 8.96875L16.45 5.25H17.5M17.5 3.5H3.5C2.52875 3.5 1.75 4.27875 1.75 5.25V15.75C1.75 16.2141 1.93437 16.6592 2.26256 16.9874C2.59075 17.3156 3.03587 17.5 3.5 17.5H17.5C17.9641 17.5 18.4092 17.3156 18.7374 16.9874C19.0656 16.6592 19.25 16.2141 19.25 15.75V5.25C19.25 4.78587 19.0656 4.34075 18.7374 4.01256C18.4092 3.68437 17.9641 3.5 17.5 3.5Z" fill="white"/>
</svg>
