<svg width="56" height="56" viewBox="0 0 56 56" fill="none" xmlns="http://www.w3.org/2000/svg">
<rect x="1" y="1" width="54" height="54" rx="27" stroke="white" stroke-opacity="0.1" stroke-width="2"/>
<path d="M20.8711 18.061C15.4195 18.061 11 22.511 11 27.9998C11 33.4887 15.4198 37.9386 20.8711 37.9386C26.3224 37.9386 30.7422 33.489 30.7422 27.9998C30.7422 22.5107 26.3229 18.061 20.8711 18.061ZM36.6348 18.6432C33.9089 18.6432 31.6995 22.8333 31.6995 28C31.6995 33.1667 33.9092 37.357 36.6351 37.357C39.361 37.357 41.5707 33.1669 41.5707 28H41.5703C41.5703 22.8319 39.3609 18.6432 36.6349 18.6432H36.6348ZM44.264 19.6178C43.3055 19.6178 42.5285 23.3709 42.5285 28C42.5285 32.6291 43.3051 36.3822 44.264 36.3822C45.2229 36.3822 46 32.6281 46 27.9998C46 23.3706 45.2226 19.6178 44.2641 19.6178H44.264Z" fill="white"/>
</svg>
