<svg width="98" height="98" viewBox="0 0 98 98" fill="none" xmlns="http://www.w3.org/2000/svg">
<circle cx="49" cy="49" r="49" fill="#3FFF90"/>
<path d="M30.25 65.6666V61.4999H34.4167V65.6666H30.25ZM30.25 57.3333V53.1666H40.6667V57.3333H30.25ZM30.25 48.9999V44.8333H46.9167V48.9999H30.25ZM30.25 40.6666V32.3333H67.75V40.6666H30.25ZM38.5833 65.6666V61.4999H42.75V65.6666H38.5833ZM43.7917 57.3333V53.1666H54.2083V57.3333H43.7917ZM46.9167 65.6666V61.4999H51.0833V65.6666H46.9167ZM51.0833 48.9999V44.8333H67.75V48.9999H51.0833ZM55.25 65.6666V61.4999H59.4167V65.6666H55.25ZM57.3333 57.3333V53.1666H67.75V57.3333H57.3333ZM63.5833 65.6666V61.4999H67.75V65.6666H63.5833Z" fill="black"/>
</svg>
