<svg width="98" height="98" viewBox="0 0 98 98" fill="none" xmlns="http://www.w3.org/2000/svg">
<circle cx="49" cy="49" r="49" fill="#3FFF90"/>
<path d="M35.5 31C33.5109 31 31.6032 31.7902 30.1967 33.1967C28.7902 34.6032 28 36.5109 28 38.5V48.013C28.855 46.957 29.866 46.033 31 45.274V38.5C31 37.3065 31.4741 36.1619 32.318 35.318C33.1619 34.4741 34.3065 34 35.5 34H62.5C63.6935 34 64.8381 34.4741 65.682 35.318C66.5259 36.1619 67 37.3065 67 38.5V56.5C67 57.6935 66.5259 58.8381 65.682 59.682C64.8381 60.5259 63.6935 61 62.5 61H51.232C51.072 61.45 50.889 61.89 50.683 62.32L52.363 64H62.5C64.4891 64 66.3968 63.2098 67.8033 61.8033C69.2098 60.3968 70 58.4891 70 56.5V38.5C70 36.5109 69.2098 34.6032 67.8033 33.1967C66.3968 31.7902 64.4891 31 62.5 31H35.5ZM46.987 46C48.043 46.855 48.967 47.866 49.726 49H59.5C59.8978 49 60.2794 48.842 60.5607 48.5607C60.842 48.2794 61 47.8978 61 47.5C61 47.1022 60.842 46.7206 60.5607 46.4393C60.2794 46.158 59.8978 46 59.5 46H46.987ZM51.232 52C51.572 52.956 51.801 53.956 51.919 55H56.5C56.8978 55 57.2794 54.842 57.5607 54.5607C57.842 54.2794 58 53.8978 58 53.5C58 53.1022 57.842 52.7206 57.5607 52.4393C57.2794 52.158 56.8978 52 56.5 52H51.232ZM47.5 43H38.5C38.1022 43 37.7206 42.842 37.4393 42.5607C37.158 42.2794 37 41.8978 37 41.5C37 41.1022 37.158 40.7206 37.4393 40.4393C37.7206 40.158 38.1022 40 38.5 40H47.5C47.8978 40 48.2794 40.158 48.5607 40.4393C48.842 40.7206 49 41.1022 49 41.5C49 41.8978 48.842 42.2794 48.5607 42.5607C48.2794 42.842 47.8978 43 47.5 43ZM38.5 67C40.858 67 43.036 66.22 44.788 64.909L52.438 72.559C52.5773 72.6985 52.7426 72.8091 52.9247 72.8847C53.1067 72.9602 53.3018 72.9992 53.4989 72.9993C53.696 72.9995 53.8912 72.9608 54.0734 72.8855C54.2555 72.8102 54.421 72.6998 54.5605 72.5605C54.7 72.4212 54.8106 72.2559 54.8862 72.0738C54.9617 71.8918 55.0007 71.6967 55.0008 71.4996C55.001 71.3025 54.9623 71.1073 54.887 70.9251C54.8117 70.743 54.7013 70.5775 54.562 70.438L46.912 62.788C48.328 60.8943 49.0634 58.5781 48.9991 56.2145C48.9348 53.8508 48.0746 51.578 46.5577 49.7641C45.0408 47.9502 42.956 46.7014 40.641 46.22C38.326 45.7385 35.9162 46.0525 33.8019 47.1112C31.6876 48.1699 29.9925 49.9112 28.9911 52.0532C27.9897 54.1953 27.7407 56.6126 28.2842 58.9139C28.8278 61.2151 30.1323 63.2655 31.9863 64.733C33.8403 66.2005 36.1354 66.9993 38.5 67ZM38.5 64C36.5109 64 34.6032 63.2098 33.1967 61.8033C31.7902 60.3968 31 58.4891 31 56.5C31 54.5109 31.7902 52.6032 33.1967 51.1967C34.6032 49.7902 36.5109 49 38.5 49C40.4891 49 42.3968 49.7902 43.8033 51.1967C45.2098 52.6032 46 54.5109 46 56.5C46 58.4891 45.2098 60.3968 43.8033 61.8033C42.3968 63.2098 40.4891 64 38.5 64Z" fill="black"/>
</svg>
