<svg width="98" height="98" viewBox="0 0 98 98" fill="none" xmlns="http://www.w3.org/2000/svg">
<circle cx="49" cy="49" r="49" fill="#3FFF90"/>
<path d="M41.3842 35.8563L36.6229 38.5227L39.2893 33.7613L36.6229 29L41.3842 31.6663L46.1456 29L43.4792 33.7613L46.1456 38.5227L41.3842 35.8563ZM64.2387 54.5208L69 51.8544L66.3337 56.6158L69 61.3771L64.2387 58.7108L59.4773 61.3771L62.1437 56.6158L59.4773 51.8544L64.2387 54.5208ZM69 29L66.3337 33.7613L69 38.5227L64.2387 35.8563L59.4773 38.5227L62.1437 33.7613L59.4773 29L64.2387 31.6663L69 29ZM52.5067 49.5309L57.1538 44.8838L53.1162 40.8462L48.4691 45.4933L52.5067 49.5309ZM54.4684 39.075L58.925 43.5316C59.6678 44.2363 59.6678 45.4742 58.925 46.217L36.6991 68.4429C35.9563 69.1857 34.7184 69.1857 34.0137 68.4429L29.5571 63.9863C28.8143 63.2816 28.8143 62.0437 29.5571 61.3009L51.783 39.075C52.5258 38.3322 53.7637 38.3322 54.4684 39.075Z" fill="black"/>
</svg>
