<svg width="56" height="56" viewBox="0 0 56 56" fill="none" xmlns="http://www.w3.org/2000/svg">
<rect x="1" y="1" width="54" height="54" rx="27" stroke="white" stroke-opacity="0.1" stroke-width="2"/>
<path d="M28 10.5469C18.6111 10.5469 11 18.137 11 27.5C11 36.863 18.6111 44.4531 28 44.4531C37.3889 44.4531 45 36.863 45 27.5C45 18.137 37.3889 10.5469 28 10.5469ZM35.8798 22.0764C35.624 24.7571 34.517 31.2624 33.9536 34.2648C33.7153 35.5352 33.246 35.9613 32.7918 36.0029C31.8047 36.0935 31.0549 35.3523 30.0987 34.7272C28.6025 33.7491 27.7573 33.1403 26.3049 32.1858C24.6265 31.0829 25.7145 30.4768 26.6711 29.4856C26.9214 29.2263 31.2711 25.2808 31.3553 24.9229C31.3658 24.8781 31.3759 24.711 31.2762 24.6232C31.1765 24.5355 31.0301 24.5652 30.9242 24.5891C30.7742 24.6231 28.3839 26.1986 23.7535 29.3156C23.0751 29.7801 22.4606 30.0065 21.91 29.9946C21.303 29.9816 20.1354 29.6524 19.2673 29.371C18.2027 29.0259 17.3566 28.8435 17.4303 28.2574C17.4686 27.952 17.8902 27.6398 18.695 27.3208C23.6508 25.1676 26.9555 23.748 28.609 23.062C33.33 21.1037 34.311 20.7636 34.9505 20.7522C35.0911 20.7499 35.4056 20.7846 35.6092 20.9495C35.7447 21.0669 35.831 21.2307 35.8512 21.4086C35.8857 21.6294 35.8953 21.8534 35.8798 22.0764Z" fill="white"/>
</svg>
