<svg width="18" height="19" viewBox="0 0 18 19" fill="none" xmlns="http://www.w3.org/2000/svg">
<path d="M16.1497 6.31428C16.1612 6.47417 16.1612 6.6341 16.1612 6.79399C16.1612 11.6709 12.4493 17.2902 5.66497 17.2902C3.57486 17.2902 1.63325 16.6848 0 15.6341C0.296965 15.6683 0.582469 15.6798 0.890859 15.6798C2.61545 15.6798 4.20303 15.0973 5.4708 14.1036C3.84898 14.0694 2.48984 13.0072 2.02155 11.5452C2.25 11.5795 2.47841 11.6023 2.71828 11.6023C3.04949 11.6023 3.38073 11.5566 3.68909 11.4767C1.99874 11.1341 0.730934 9.64931 0.730934 7.85616V7.8105C1.22203 8.08461 1.79314 8.25593 2.39843 8.27874C1.40477 7.61629 0.753785 6.4856 0.753785 5.2064C0.753785 4.52114 0.936492 3.89296 1.25631 3.34474C3.0723 5.58331 5.80201 7.04521 8.86289 7.20514C8.8058 6.93103 8.77152 6.64552 8.77152 6.35998C8.77152 4.32697 10.4162 2.6709 12.4606 2.6709C13.5228 2.6709 14.4822 3.11633 15.156 3.83587C15.9898 3.67598 16.7893 3.36759 17.4974 2.94501C17.2233 3.80163 16.6408 4.52117 15.8756 4.97799C16.618 4.89808 17.3375 4.69245 17.9999 4.40695C17.4975 5.13788 16.8693 5.78887 16.1497 6.31428Z" fill="white"/>
</svg>
