<svg width="98" height="98" viewBox="0 0 98 98" fill="none" xmlns="http://www.w3.org/2000/svg">
<circle cx="49" cy="49" r="49" fill="#3FFF90"/>
<path d="M36.25 29.3594C36.25 26.401 38.651 24 41.6094 24H58.7165C60.1375 24 61.5003 24.5635 62.5048 25.5711L71.4289 34.4952C72.4365 35.4997 73 36.8625 73 38.2835V64.5781C73 65.9995 72.4353 67.3627 71.4303 68.3678C70.4252 69.3729 69.062 69.9375 67.6406 69.9375H40.0781C39.4689 69.9375 38.8847 69.6955 38.454 69.2648C38.0232 68.834 37.7812 68.2498 37.7812 67.6406C37.7812 67.0315 38.0232 66.4472 38.454 66.0165C38.8847 65.5857 39.4689 65.3438 40.0781 65.3438H67.6406C67.8437 65.3438 68.0384 65.2631 68.182 65.1195C68.3256 64.9759 68.4062 64.7812 68.4062 64.5781V42.375H59.9844C58.563 42.375 57.1998 41.8104 56.1947 40.8053C55.1896 39.8002 54.625 38.437 54.625 37.0156V28.5938H41.6094C41.4063 28.5938 41.2116 28.6744 41.068 28.818C40.9244 28.9616 40.8437 29.1563 40.8437 29.3594V37.0156C40.8437 37.6248 40.6018 38.209 40.171 38.6398C39.7403 39.0705 39.156 39.3125 38.5469 39.3125C37.9377 39.3125 37.3535 39.0705 36.9227 38.6398C36.492 38.209 36.25 37.6248 36.25 37.0156V29.3594ZM41.5175 44.58C41.9482 44.1499 42.5319 43.9083 43.1406 43.9083C43.7493 43.9083 44.3331 44.1499 44.7637 44.58L50.8887 50.705C51.3189 51.1357 51.5605 51.7195 51.5605 52.3281C51.5605 52.9368 51.3189 53.5206 50.8887 53.9513L44.7637 60.0762C44.483 60.3786 44.1259 60.5996 43.7301 60.716C43.3343 60.8325 42.9144 60.84 42.5146 60.7378C42.1149 60.6355 41.7501 60.4274 41.4588 60.1353C41.1674 59.8432 40.9602 59.4779 40.8591 59.0779C40.7567 58.6786 40.7639 58.2591 40.8797 57.8636C40.9956 57.468 41.2159 57.111 41.5175 56.83L46.0194 52.3281L41.5175 47.8263C41.0874 47.3956 40.8458 46.8118 40.8458 46.2031C40.8458 45.5945 41.0874 45.0107 41.5175 44.58ZM34.045 47.8263L29.5431 52.3281L34.045 56.83C34.4505 57.2657 34.6713 57.8416 34.661 58.4367C34.6508 59.0318 34.4102 59.5997 33.9899 60.0211C33.5685 60.4414 33.0005 60.682 32.4054 60.6923C31.8103 60.7026 31.2344 60.4818 30.7987 60.0762L24.6737 53.9513C24.2436 53.5206 24.002 52.9368 24.002 52.3281C24.002 51.7195 24.2436 51.1357 24.6737 50.705L30.7987 44.58C31.2344 44.1745 31.8103 43.9537 32.4054 43.964C33.0005 43.9742 33.5685 44.2148 33.9899 44.6351C34.4102 45.0565 34.6508 45.6245 34.661 46.2196C34.6713 46.8147 34.4505 47.3906 34.045 47.8263ZM59.2187 28.7836V37.0156C59.2187 37.4382 59.5617 37.7812 59.9844 37.7812H68.2164L68.1827 37.7414L59.2586 28.8173L59.2187 28.7836Z" fill="black"/>
</svg>
