<svg width="18" height="19" viewBox="0 0 18 19" fill="none" xmlns="http://www.w3.org/2000/svg">
<path d="M6.11353 14.9516C6.11353 15.0219 6.03266 15.0781 5.93069 15.0781C5.81466 15.0887 5.73379 15.0324 5.73379 14.9516C5.73379 14.8812 5.81466 14.825 5.91663 14.825C6.02211 14.8145 6.11353 14.8707 6.11353 14.9516ZM5.02002 14.7934C4.9954 14.8637 5.06573 14.9445 5.17121 14.9656C5.26263 15.0008 5.36811 14.9656 5.38921 14.8953C5.41031 14.825 5.3435 14.7441 5.23802 14.7125C5.1466 14.6879 5.04463 14.723 5.02002 14.7934ZM6.57414 14.7336C6.47218 14.7582 6.40185 14.825 6.4124 14.9059C6.42295 14.9762 6.51437 15.0219 6.61985 14.9973C6.72182 14.9727 6.79214 14.9059 6.7816 14.8355C6.77105 14.7688 6.67611 14.723 6.57414 14.7336ZM8.88776 1.26172C4.01089 1.26172 0.280273 4.96367 0.280273 9.83984C0.280273 13.7387 2.73453 17.075 6.24011 18.2492C6.69018 18.3301 6.8484 18.0523 6.8484 17.8238C6.8484 17.6059 6.83785 16.4035 6.83785 15.6652C6.83785 15.6652 4.37656 16.1926 3.85969 14.6176C3.85969 14.6176 3.45885 13.5945 2.88221 13.3309C2.88221 13.3309 2.07702 12.7789 2.93847 12.7895C2.93847 12.7895 3.81398 12.8598 4.29569 13.6965C5.06572 15.0535 6.35614 14.6633 6.85895 14.4313C6.93982 13.8688 7.16837 13.4785 7.42153 13.2465C5.45602 13.0285 3.47292 12.7437 3.47292 9.36172C3.47292 8.39492 3.74014 7.90977 4.30273 7.29102C4.21131 7.0625 3.91243 6.12031 4.39414 4.90391C5.12902 4.67539 6.82027 5.85313 6.82027 5.85313C7.5235 5.65625 8.27947 5.5543 9.0284 5.5543C9.77734 5.5543 10.5333 5.65625 11.2365 5.85313C11.2365 5.85313 12.9278 4.67188 13.6627 4.90391C14.1444 6.12383 13.8455 7.0625 13.7541 7.29102C14.3167 7.91328 14.6612 8.39844 14.6612 9.36172C14.6612 12.7543 12.5902 13.025 10.6247 13.2465C10.9482 13.5242 11.2225 14.0516 11.2225 14.8777C11.2225 16.0625 11.2119 17.5285 11.2119 17.8168C11.2119 18.0453 11.3737 18.323 11.8202 18.2422C15.3363 17.075 17.7203 13.7387 17.7203 9.83984C17.7203 4.96367 13.7646 1.26172 8.88776 1.26172ZM3.69795 13.3871C3.65224 13.4223 3.66279 13.5031 3.72256 13.5699C3.77882 13.6262 3.85969 13.6508 3.9054 13.6051C3.95111 13.5699 3.94056 13.4891 3.88079 13.4223C3.82453 13.366 3.74366 13.3414 3.69795 13.3871ZM3.31821 13.1023C3.2936 13.148 3.32876 13.2043 3.39908 13.2395C3.45534 13.2746 3.52566 13.2641 3.55027 13.2148C3.57489 13.1691 3.53972 13.1129 3.4694 13.0777C3.39908 13.0566 3.34282 13.0672 3.31821 13.1023ZM4.45743 14.3539C4.40118 14.3996 4.42227 14.5051 4.50314 14.5719C4.58402 14.6527 4.68598 14.6633 4.73169 14.607C4.7774 14.5613 4.75631 14.4559 4.68598 14.3891C4.60863 14.3082 4.50314 14.2977 4.45743 14.3539ZM4.0566 13.8371C4.00034 13.8723 4.00034 13.9637 4.0566 14.0445C4.11285 14.1254 4.20779 14.1605 4.2535 14.1254C4.30976 14.0797 4.30976 13.9883 4.2535 13.9074C4.20427 13.8266 4.11285 13.7914 4.0566 13.8371Z" fill="white"/>
</svg>
