<svg width="56" height="56" viewBox="0 0 56 56" fill="none" xmlns="http://www.w3.org/2000/svg">
<rect x="1" y="1" width="54" height="54" rx="27" stroke="white" stroke-opacity="0.1" stroke-width="2"/>
<path d="M23.3687 36.8375C23.3687 36.9625 23.225 37.0625 23.0437 37.0625C22.8375 37.0813 22.6938 36.9813 22.6938 36.8375C22.6938 36.7125 22.8375 36.6125 23.0188 36.6125C23.2063 36.5938 23.3687 36.6938 23.3687 36.8375ZM21.425 36.5563C21.3813 36.6813 21.5063 36.825 21.6938 36.8625C21.8563 36.925 22.0437 36.8625 22.0813 36.7375C22.1188 36.6125 22 36.4688 21.8125 36.4125C21.65 36.3688 21.4688 36.4313 21.425 36.5563ZM24.1875 36.45C24.0063 36.4938 23.8812 36.6125 23.9 36.7563C23.9187 36.8813 24.0813 36.9625 24.2688 36.9188C24.45 36.875 24.575 36.7563 24.5562 36.6313C24.5375 36.5125 24.3687 36.4313 24.1875 36.45ZM28.3 12.5C19.6313 12.5 13 19.0813 13 27.75C13 34.6813 17.3625 40.6125 23.5938 42.7C24.3938 42.8438 24.675 42.35 24.675 41.9438C24.675 41.5563 24.6562 39.4188 24.6562 38.1063C24.6562 38.1063 20.2812 39.0438 19.3625 36.2438C19.3625 36.2438 18.65 34.425 17.625 33.9563C17.625 33.9563 16.1937 32.975 17.725 32.9938C17.725 32.9938 19.2812 33.1188 20.1375 34.6063C21.5062 37.0188 23.8 36.325 24.6938 35.9125C24.8375 34.9125 25.2438 34.2188 25.6938 33.8063C22.2 33.4188 18.675 32.9125 18.675 26.9C18.675 25.1813 19.15 24.3188 20.15 23.2188C19.9875 22.8125 19.4563 21.1375 20.3125 18.975C21.6187 18.5688 24.625 20.6625 24.625 20.6625C25.875 20.3125 27.2188 20.1313 28.55 20.1313C29.8813 20.1313 31.225 20.3125 32.475 20.6625C32.475 20.6625 35.4813 18.5625 36.7875 18.975C37.6438 21.1438 37.1125 22.8125 36.95 23.2188C37.95 24.325 38.5625 25.1875 38.5625 26.9C38.5625 32.9313 34.8813 33.4125 31.3875 33.8063C31.9625 34.3 32.45 35.2375 32.45 36.7063C32.45 38.8125 32.4312 41.4188 32.4312 41.9313C32.4312 42.3375 32.7188 42.8313 33.5125 42.6875C39.7625 40.6125 44 34.6813 44 27.75C44 19.0813 36.9688 12.5 28.3 12.5ZM19.075 34.0563C18.9937 34.1188 19.0125 34.2625 19.1188 34.3813C19.2188 34.4813 19.3625 34.525 19.4437 34.4438C19.525 34.3813 19.5062 34.2375 19.4 34.1188C19.3 34.0188 19.1562 33.975 19.075 34.0563ZM18.4 33.55C18.3563 33.6313 18.4187 33.7313 18.5437 33.7938C18.6437 33.8563 18.7688 33.8375 18.8125 33.75C18.8562 33.6688 18.7937 33.5688 18.6687 33.5063C18.5437 33.4688 18.4437 33.4875 18.4 33.55ZM20.425 35.775C20.325 35.8563 20.3625 36.0438 20.5062 36.1625C20.65 36.3063 20.8312 36.325 20.9125 36.225C20.9938 36.1438 20.9563 35.9563 20.8313 35.8375C20.6938 35.6938 20.5063 35.675 20.425 35.775ZM19.7125 34.8563C19.6125 34.9188 19.6125 35.0813 19.7125 35.225C19.8125 35.3688 19.9812 35.4313 20.0625 35.3688C20.1625 35.2875 20.1625 35.125 20.0625 34.9813C19.975 34.8375 19.8125 34.775 19.7125 34.8563Z" fill="white"/>
</svg>
