<svg width="56" height="56" viewBox="0 0 56 56" fill="none" xmlns="http://www.w3.org/2000/svg">
<rect x="1" y="1" width="54" height="54" rx="27" stroke="white" stroke-opacity="0.1" stroke-width="2"/>
<path d="M38 35.5H35.5V24.5625L28 29.25L20.5 24.5625V35.5H18V20.5H19.5L28 25.8125L36.5 20.5H38M38 18H18C16.6125 18 15.5 19.1125 15.5 20.5V35.5C15.5 36.163 15.7634 36.7989 16.2322 37.2678C16.7011 37.7366 17.337 38 18 38H38C38.663 38 39.2989 37.7366 39.7678 37.2678C40.2366 36.7989 40.5 36.163 40.5 35.5V20.5C40.5 19.837 40.2366 19.2011 39.7678 18.7322C39.2989 18.2634 38.663 18 38 18Z" fill="white"/>
</svg>
