<svg width="98" height="98" viewBox="0 0 98 98" fill="none" xmlns="http://www.w3.org/2000/svg">
<circle cx="49" cy="49" r="49" fill="#3FFF90"/>
<path d="M66.875 74.125H44.125C42.3375 74.125 40.875 72.6625 40.875 70.875V64.375H44.125V70.875H66.875V48.125H60.375V44.875H66.875C68.6625 44.875 70.125 46.3375 70.125 48.125V70.875C70.125 72.6625 68.6625 74.125 66.875 74.125Z" fill="black"/>
<path d="M40.875 57.875H57.125V61.125H40.875V57.875ZM40.875 51.375H57.125V54.625H40.875V51.375ZM40.875 44.875H57.125V48.125H40.875V44.875Z" fill="black"/>
<path d="M31.125 31.875H53.875C55.6625 31.875 57.125 33.3375 57.125 35.125V41.625H53.875V35.125H31.125V57.875H37.625V61.125H31.125C29.3375 61.125 27.875 59.6625 27.875 57.875V35.125C27.875 33.3375 29.3375 31.875 31.125 31.875Z" fill="black"/>
</svg>
