<svg width="18" height="19" viewBox="0 0 18 19" fill="none" xmlns="http://www.w3.org/2000/svg">
<path d="M9.00027 1.26172C4.18434 1.26172 0.280273 5.16522 0.280273 9.98047C0.280273 14.7957 4.18434 18.6992 9.00027 18.6992C13.8162 18.6992 17.7203 14.7957 17.7203 9.98047C17.7203 5.16522 13.8162 1.26172 9.00027 1.26172ZM13.0421 7.19117C12.9109 8.56982 12.3431 11.9154 12.0541 13.4595C11.9319 14.1129 11.6912 14.332 11.4582 14.3534C10.9519 14.4 10.5673 14.0188 10.0768 13.6973C9.30934 13.1943 8.87577 12.8812 8.13077 12.3903C7.26985 11.8231 7.82796 11.5114 8.3186 11.0017C8.44701 10.8683 10.6782 8.83919 10.7213 8.65511C10.7267 8.63209 10.7319 8.54613 10.6808 8.50099C10.6296 8.45585 10.5545 8.47114 10.5002 8.48341C10.4233 8.5009 9.19721 9.31115 6.82207 10.9142C6.47409 11.1531 6.15888 11.2695 5.87644 11.2634C5.56509 11.2567 4.96618 11.0874 4.52094 10.9427C3.97485 10.7652 3.54082 10.6714 3.57861 10.37C3.5983 10.2129 3.81455 10.0524 4.22734 9.88832C6.76941 8.78095 8.46451 8.05087 9.31265 7.69809C11.7343 6.69097 12.2375 6.51603 12.5655 6.5102C12.6376 6.509 12.7989 6.52686 12.9034 6.61162C12.9728 6.672 13.0171 6.75626 13.0275 6.84773C13.0452 6.9613 13.0501 7.0765 13.0421 7.19117Z" fill="white"/>
</svg>
