<svg width="56" height="56" viewBox="0 0 56 56" fill="none" xmlns="http://www.w3.org/2000/svg">
<rect x="1" y="1" width="54" height="54" rx="27" stroke="white" stroke-opacity="0.1" stroke-width="2"/>
<path d="M40.019 21.5935C40.0374 21.8511 40.0374 22.1088 40.0374 22.3664C40.0374 30.2236 34.0571 39.2769 23.1269 39.2769C19.7595 39.2769 16.6314 38.3016 14 36.6088C14.4784 36.664 14.9384 36.6824 15.4353 36.6824C18.2138 36.6824 20.7716 35.7439 22.8141 34.143C20.2011 34.0878 18.0114 32.3765 17.2569 30.0212C17.625 30.0764 17.993 30.1132 18.3795 30.1132C18.9131 30.1132 19.4467 30.0395 19.9435 29.9108C17.2202 29.3587 15.1776 26.9666 15.1776 24.0777V24.0041C15.9688 24.4457 16.889 24.7217 17.8641 24.7585C16.2632 23.6912 15.2144 21.8695 15.2144 19.8086C15.2144 18.7046 15.5088 17.6925 16.0241 16.8093C18.9498 20.4159 23.3477 22.7711 28.2791 23.0288C28.1871 22.5872 28.1319 22.1272 28.1319 21.6672C28.1319 18.3917 30.7817 15.7236 34.0754 15.7236C35.7867 15.7236 37.3324 16.4413 38.4181 17.6005C39.7613 17.3429 41.0494 16.8461 42.1903 16.1653C41.7486 17.5454 40.8102 18.7046 39.5773 19.4406C40.7734 19.3119 41.9327 18.9806 42.9999 18.5206C42.1904 19.6982 41.1783 20.747 40.019 21.5935Z" fill="white"/>
</svg>
