<svg width="22" height="19" viewBox="0 0 22 19" fill="none" xmlns="http://www.w3.org/2000/svg">
<path d="M20.2042 5.34276C19.9834 4.51132 19.3328 3.8565 18.5067 3.63427C17.0094 3.23047 11.0054 3.23047 11.0054 3.23047C11.0054 3.23047 5.00142 3.23047 3.50408 3.63427C2.67802 3.85653 2.02742 4.51132 1.8066 5.34276C1.4054 6.8498 1.4054 9.99411 1.4054 9.99411C1.4054 9.99411 1.4054 13.1384 1.8066 14.6455C2.02742 15.4769 2.67802 16.1044 3.50408 16.3267C5.00142 16.7305 11.0054 16.7305 11.0054 16.7305C11.0054 16.7305 17.0094 16.7305 18.5067 16.3267C19.3328 16.1044 19.9834 15.4769 20.2042 14.6455C20.6054 13.1384 20.6054 9.99411 20.6054 9.99411C20.6054 9.99411 20.6054 6.8498 20.2042 5.34276ZM9.04176 12.8489V7.13932L14.0599 9.99418L9.04176 12.8489Z" fill="white"/>
</svg>
