<svg width="56" height="56" viewBox="0 0 56 56" fill="none" xmlns="http://www.w3.org/2000/svg">
<rect x="1" y="1" width="54" height="54" rx="27" stroke="white" stroke-opacity="0.1" stroke-width="2"/>
<path d="M42.5822 20.7858C42.2441 19.4924 41.2481 18.4738 39.9835 18.1281C37.6914 17.5 28.5 17.5 28.5 17.5C28.5 17.5 19.3087 17.5 17.0165 18.1281C15.7519 18.4739 14.7559 19.4924 14.4179 20.7858C13.8037 23.1301 13.8037 28.0212 13.8037 28.0212C13.8037 28.0212 13.8037 32.9124 14.4179 35.2566C14.7559 36.55 15.7519 37.5262 17.0165 37.8719C19.3087 38.5 28.5 38.5 28.5 38.5C28.5 38.5 37.6913 38.5 39.9835 37.8719C41.2481 37.5262 42.2441 36.55 42.5822 35.2566C43.1963 32.9124 43.1963 28.0212 43.1963 28.0212C43.1963 28.0212 43.1963 23.1301 42.5822 20.7858ZM25.4939 32.462V23.5804L33.1761 28.0213L25.4939 32.462Z" fill="white"/>
</svg>
